<svg width="30" height="30" viewBox="0 0 30 30" fill="none" xmlns="http://www.w3.org/2000/svg">
<path d="M8.75 8.75V3.75H7.5M2.5 25C2.78396 25.3956 3.15996 25.7162 3.59553 25.9339C4.0311 26.1517 4.51313 26.2602 5 26.25C5.48687 26.2602 5.9689 26.1517 6.40447 25.9339C6.84003 25.7162 7.21604 25.3956 7.5 25C7.78396 24.6044 8.15997 24.2838 8.59553 24.0661C9.0311 23.8483 9.51313 23.7398 10 23.75C10.4869 23.7398 10.9689 23.8483 11.4045 24.0661C11.84 24.2838 12.216 24.6044 12.5 25C12.784 25.3956 13.16 25.7162 13.5955 25.9339C14.0311 26.1517 14.5131 26.2602 15 26.25C15.4869 26.2602 15.9689 26.1517 16.4045 25.9339C16.84 25.7162 17.216 25.3956 17.5 25C17.784 24.6044 18.16 24.2838 18.5955 24.0661C19.0311 23.8483 19.5131 23.7398 20 23.75C20.4869 23.7398 20.9689 23.8483 21.4045 24.0661C21.84 24.2838 22.216 24.6044 22.5 25C22.784 25.3956 23.16 25.7162 23.5955 25.9339C24.0311 26.1517 24.5131 26.2602 25 26.25C25.4869 26.2602 25.9689 26.1517 26.4045 25.9339C26.84 25.7162 27.216 25.3956 27.5 25H2.5ZM5 22.5L3.75 16.25H26.25L23.75 21.25L5 22.5ZM6.25 16.25V8.75H16.25L21.25 16.25H6.25Z" stroke="#A1A1AA" stroke-width="2.5" stroke-linecap="round" stroke-linejoin="round"/>
</svg>
