<svg width="27" height="28" viewBox="0 0 27 28" fill="none" xmlns="http://www.w3.org/2000/svg">
<path d="M13.5 12.875C14.9918 12.875 16.4226 13.4676 17.4775 14.5225C18.5324 15.5774 19.125 17.0082 19.125 18.5V25.25H16.875V18.5C16.875 17.6391 16.5461 16.8108 15.9556 16.1845C15.365 15.5581 14.5574 15.1811 13.698 15.1306L13.5 15.125C12.6391 15.125 11.8108 15.4539 11.1845 16.0444C10.5581 16.635 10.1811 17.4426 10.1306 18.302L10.125 18.5V25.25H7.875V18.5C7.875 17.0082 8.46763 15.5774 9.52252 14.5225C10.5774 13.4676 12.0082 12.875 13.5 12.875ZM6.1875 16.25C6.50138 16.25 6.80625 16.2871 7.09875 16.3558C6.9064 16.9284 6.79249 17.5244 6.76012 18.1276L6.75 18.5V18.5968C6.62069 18.5505 6.48618 18.5203 6.3495 18.5068L6.1875 18.5C5.76801 18.5 5.36356 18.6563 5.05303 18.9383C4.7425 19.2204 4.54815 19.6079 4.50787 20.0255L4.5 20.1875V25.25H2.25V20.1875C2.25 19.1432 2.66484 18.1417 3.40327 17.4033C4.14169 16.6648 5.14321 16.25 6.1875 16.25ZM20.8125 16.25C21.8568 16.25 22.8583 16.6648 23.5967 17.4033C24.3352 18.1417 24.75 19.1432 24.75 20.1875V25.25H22.5V20.1875C22.5 19.768 22.3437 19.3636 22.0617 19.053C21.7796 18.7425 21.3921 18.5481 20.9745 18.5079L20.8125 18.5C20.6156 18.5 20.4266 18.5337 20.25 18.5956V18.5C20.25 17.7507 20.1285 17.0307 19.9024 16.358C20.2004 16.2859 20.5059 16.2496 20.8125 16.25ZM6.1875 9.5C6.93342 9.5 7.64879 9.79632 8.17624 10.3238C8.70368 10.8512 9 11.5666 9 12.3125C9 13.0584 8.70368 13.7738 8.17624 14.3012C7.64879 14.8287 6.93342 15.125 6.1875 15.125C5.44158 15.125 4.72621 14.8287 4.19876 14.3012C3.67132 13.7738 3.375 13.0584 3.375 12.3125C3.375 11.5666 3.67132 10.8512 4.19876 10.3238C4.72621 9.79632 5.44158 9.5 6.1875 9.5ZM20.8125 9.5C21.5584 9.5 22.2738 9.79632 22.8012 10.3238C23.3287 10.8512 23.625 11.5666 23.625 12.3125C23.625 13.0584 23.3287 13.7738 22.8012 14.3012C22.2738 14.8287 21.5584 15.125 20.8125 15.125C20.0666 15.125 19.3512 14.8287 18.8238 14.3012C18.2963 13.7738 18 13.0584 18 12.3125C18 11.5666 18.2963 10.8512 18.8238 10.3238C19.3512 9.79632 20.0666 9.5 20.8125 9.5ZM6.1875 11.75C6.03832 11.75 5.89524 11.8093 5.78975 11.9148C5.68426 12.0202 5.625 12.1633 5.625 12.3125C5.625 12.4617 5.68426 12.6048 5.78975 12.7102C5.89524 12.8157 6.03832 12.875 6.1875 12.875C6.33668 12.875 6.47976 12.8157 6.58525 12.7102C6.69074 12.6048 6.75 12.4617 6.75 12.3125C6.75 12.1633 6.69074 12.0202 6.58525 11.9148C6.47976 11.8093 6.33668 11.75 6.1875 11.75ZM20.8125 11.75C20.6633 11.75 20.5202 11.8093 20.4148 11.9148C20.3093 12.0202 20.25 12.1633 20.25 12.3125C20.25 12.4617 20.3093 12.6048 20.4148 12.7102C20.5202 12.8157 20.6633 12.875 20.8125 12.875C20.9617 12.875 21.1048 12.8157 21.2102 12.7102C21.3157 12.6048 21.375 12.4617 21.375 12.3125C21.375 12.1633 21.3157 12.0202 21.2102 11.9148C21.1048 11.8093 20.9617 11.75 20.8125 11.75ZM13.5 2.75C14.6935 2.75 15.8381 3.22411 16.682 4.06802C17.5259 4.91193 18 6.05653 18 7.25C18 8.44347 17.5259 9.58807 16.682 10.432C15.8381 11.2759 14.6935 11.75 13.5 11.75C12.3065 11.75 11.1619 11.2759 10.318 10.432C9.47411 9.58807 9 8.44347 9 7.25C9 6.05653 9.47411 4.91193 10.318 4.06802C11.1619 3.22411 12.3065 2.75 13.5 2.75ZM13.5 5C12.9033 5 12.331 5.23705 11.909 5.65901C11.4871 6.08097 11.25 6.65326 11.25 7.25C11.25 7.84674 11.4871 8.41903 11.909 8.84099C12.331 9.26295 12.9033 9.5 13.5 9.5C14.0967 9.5 14.669 9.26295 15.091 8.84099C15.5129 8.41903 15.75 7.84674 15.75 7.25C15.75 6.65326 15.5129 6.08097 15.091 5.65901C14.669 5.23705 14.0967 5 13.5 5Z" fill="#A1A1AA"/>
</svg>
