<svg width="30" height="31" viewBox="0 0 30 31" fill="none" xmlns="http://www.w3.org/2000/svg">
<g clip-path="url(#clip0_106_183)">
<path d="M24.375 2.375C25.3696 2.375 26.3234 2.77009 27.0266 3.47335C27.7299 4.17661 28.125 5.13044 28.125 6.125V24.875C28.125 25.8696 27.7299 26.8234 27.0266 27.5266C26.3234 28.2299 25.3696 28.625 24.375 28.625H5.625C4.63044 28.625 3.67661 28.2299 2.97335 27.5266C2.27009 26.8234 1.875 25.8696 1.875 24.875V6.125C1.875 5.13044 2.27009 4.17661 2.97335 3.47335C3.67661 2.77009 4.63044 2.375 5.625 2.375H24.375ZM5.625 0.5C4.13316 0.5 2.70242 1.09263 1.64752 2.14752C0.592632 3.20242 0 4.63316 0 6.125L0 24.875C0 26.3668 0.592632 27.7976 1.64752 28.8525C2.70242 29.9074 4.13316 30.5 5.625 30.5H24.375C25.8668 30.5 27.2976 29.9074 28.3525 28.8525C29.4074 27.7976 30 26.3668 30 24.875V6.125C30 4.63316 29.4074 3.20242 28.3525 2.14752C27.2976 1.09263 25.8668 0.5 24.375 0.5L5.625 0.5Z" fill="black"/>
<path d="M10.3125 8C10.3125 8.74592 10.0162 9.46129 9.48874 9.98874C8.96129 10.5162 8.24592 10.8125 7.5 10.8125C6.75408 10.8125 6.03871 10.5162 5.51126 9.98874C4.98382 9.46129 4.6875 8.74592 4.6875 8C4.6875 7.25408 4.98382 6.53871 5.51126 6.01126C6.03871 5.48382 6.75408 5.1875 7.5 5.1875C8.24592 5.1875 8.96129 5.48382 9.48874 6.01126C10.0162 6.53871 10.3125 7.25408 10.3125 8ZM25.3125 8C25.3125 8.74592 25.0162 9.46129 24.4887 9.98874C23.9613 10.5162 23.2459 10.8125 22.5 10.8125C21.7541 10.8125 21.0387 10.5162 20.5113 9.98874C19.9838 9.46129 19.6875 8.74592 19.6875 8C19.6875 7.25408 19.9838 6.53871 20.5113 6.01126C21.0387 5.48382 21.7541 5.1875 22.5 5.1875C23.2459 5.1875 23.9613 5.48382 24.4887 6.01126C25.0162 6.53871 25.3125 7.25408 25.3125 8ZM25.3125 23C25.3125 23.7459 25.0162 24.4613 24.4887 24.9887C23.9613 25.5162 23.2459 25.8125 22.5 25.8125C21.7541 25.8125 21.0387 25.5162 20.5113 24.9887C19.9838 24.4613 19.6875 23.7459 19.6875 23C19.6875 22.2541 19.9838 21.5387 20.5113 21.0113C21.0387 20.4838 21.7541 20.1875 22.5 20.1875C23.2459 20.1875 23.9613 20.4838 24.4887 21.0113C25.0162 21.5387 25.3125 22.2541 25.3125 23ZM10.3125 23C10.3125 23.7459 10.0162 24.4613 9.48874 24.9887C8.96129 25.5162 8.24592 25.8125 7.5 25.8125C6.75408 25.8125 6.03871 25.5162 5.51126 24.9887C4.98382 24.4613 4.6875 23.7459 4.6875 23C4.6875 22.2541 4.98382 21.5387 5.51126 21.0113C6.03871 20.4838 6.75408 20.1875 7.5 20.1875C8.24592 20.1875 8.96129 20.4838 9.48874 21.0113C10.0162 21.5387 10.3125 22.2541 10.3125 23ZM17.8125 15.5C17.8125 16.2459 17.5162 16.9613 16.9887 17.4887C16.4613 18.0162 15.7459 18.3125 15 18.3125C14.2541 18.3125 13.5387 18.0162 13.0113 17.4887C12.4838 16.9613 12.1875 16.2459 12.1875 15.5C12.1875 14.7541 12.4838 14.0387 13.0113 13.5113C13.5387 12.9838 14.2541 12.6875 15 12.6875C15.7459 12.6875 16.4613 12.9838 16.9887 13.5113C17.5162 14.0387 17.8125 14.7541 17.8125 15.5Z" fill="black"/>
</g>
<defs>
<clipPath id="clip0_106_183">
<rect width="30" height="30" fill="white" transform="translate(0 0.5)"/>
</clipPath>
</defs>
</svg>
